<svg xmlns="http://www.w3.org/2000/svg" viewBox="0 0 512 512" id="Gift">
  <path fill="#26d7fe" d="M457 155v260l-186 85.2-15-6.9-75.5-34.6-50-22.9L85 415V268.9l-30-13.7v-45.6L79 166l6-11 82.7-37.9C194.1 171 256 205 256 205s6-3.3 15-9.4c-4.4-3-9.5-6.6-15-10.9-22.1-17.2-50.5-44.6-63.2-79l63.2-29 15-6.9 78.2 35.8 25.1 11.5L457 155z" class="coloref917b svgShape"></path>
  <path fill="#e9574e" d="M457 155v260l-186 85.2-15 6.9V205s6-3.3 15-9.4c-4.4-3-9.5-6.6-15-10.9V63l15 6.9 78.2 35.8 25.1 11.5L457 155z" class="colore96b4e svgShape"></path>
  <path fill="#d45985" d="m457 155-201 92-171-78.2-6-2.8 6-11 82.7-37.9C194.1 171 256 205 256 205s6-3.3 15-9.4c-4.4-3-9.5-6.6-15-10.9-22.1-17.2-50.5-44.6-63.2-79l63.2-29 15-6.9 78.2 35.8 25.1 11.5L457 155z" class="colore17084 svgShape"></path>
  <path fill="#d85b53" d="m457 155-201 92v-42s6-3.3 15-9.4c-4.4-3-9.5-6.6-15-10.9V63l15 6.9 78.2 35.8 25.1 11.5L457 155z" class="colord84861 svgShape"></path>
  <path fill="#f5a9c4" d="m256 247-44 80-6 11-25.5-11.7-50-22.9L85 282.6v-13.7l-30-13.7-20-9.2 20-36.4L79 166l6 2.7z" class="colorf5b7a9 svgShape"></path>
  <path fill="#26d7fe" d="m256 247 50 91 201-92-50-91z" class="coloref917b svgShape"></path>
  <path fill="#9ae45f" d="M356 69.3c0 12.8-2.5 25-6.8 36.4-15.9 42.9-56.2 74.9-78.2 89.9-4.4-3-9.5-6.6-15-10.9-22.1-17.2-50.5-44.6-63.2-79-4.2-11.4-6.8-23.6-6.8-36.4 0-33.5 12.4-53.9 29-61.2 15.8 6.2 31.2 22 41 47.2 4.1-10.6 9.3-19.6 15-26.8 16.8-21.2 38.7-28 56-20.4 16.6 7.2 29 27.6 29 61.2z" class="colorffcb5c svgShape"></path>
  <path fill="#b23964" d="M180 326.3v132.4l-50-22.9V303.4z" class="colorb23998 svgShape"></path>
  <path fill="#8b2d4f" d="m331.5 472.4 50-22.9V303.4l-50 22.9z" class="color8b2d77 svgShape"></path>
  <g fill="#57130f" class="color57130f svgShape">
    <path d="M256 512c-.7 0-1.4-.2-2.1-.5l-201-92c-1.8-.8-2.9-2.6-2.9-4.5V289h10v122.7l196 89.7 196-89.7V269h10v146c0 2-1.1 3.7-2.9 4.5l-201 92c-.7.3-1.4.5-2.1.5zM371.269 110.237l87.738 40.179-4.164 9.092-87.738-40.179zM160.68 101.148l4.163 9.093-107.744 49.33-4.163-9.091z" fill="#000000" class="color000000 svgShape"></path>
    <path d="M206 343c-.7 0-1.4-.1-2.1-.5l-201-92c-1.3-.6-2.2-1.7-2.7-3-.4-1.3-.3-2.8.4-4l50-91c1.3-2.3 4.1-3.2 6.5-2.1l201 92c1.3.6 2.2 1.7 2.7 3 .4 1.3.3 2.8-.4 4l-50 91c-.9 1.6-2.6 2.6-4.4 2.6zM12 243.7l191.9 87.8 45.2-82.2-192-87.8L12 243.7z" fill="#000000" class="color000000 svgShape"></path>
    <path d="M306 343c-1.8 0-3.5-.9-4.4-2.6l-50-91c-.7-1.2-.8-2.7-.4-4 .4-1.3 1.4-2.4 2.7-3l201-92c2.4-1.1 5.2-.2 6.5 2.1l50 91c.7 1.2.8 2.7.4 4-.4 1.3-1.4 2.4-2.7 3l-201 92c-.7.3-1.4.5-2.1.5zm-43-93.7 45.2 82.2L500 243.7l-45.2-82.2L263 249.3z" fill="#000000" class="color000000 svgShape"></path>
    <path d="M251 205h10v302h-10z" fill="#000000" class="color000000 svgShape"></path>
    <path d="M256 210c-.8 0-1.7-.2-2.4-.6-1-.6-25.9-14.3-51-38.3-33.8-32.2-51.6-67.4-51.6-101.8 0-44.9 21.1-64.8 40.8-68.5C212.2-3 238.9 8.8 256 43 273 8.8 299.8-3 320.2.8 339.9 4.4 361 24.4 361 69.3c0 34.5-17.8 69.7-51.6 101.8-25.2 24-50 37.7-51 38.3-.7.4-1.6.6-2.4.6zM199.5 10c-2 0-3.9.2-5.8.5-20.2 3.8-32.7 26.3-32.7 58.8 0 39.9 26.3 73.4 48.3 94.4 19.8 18.9 39.9 31.5 46.7 35.5 6.8-4 26.9-16.6 46.7-35.5 22-21 48.3-54.5 48.3-94.4 0-32.4-12.5-54.9-32.7-58.7-18.3-3.5-43.2 9.5-57.6 46.4-.7 1.9-2.6 3.2-4.7 3.2s-3.9-1.3-4.7-3.2c-12.9-33.1-34.3-47-51.8-47zM125.5 303.4h10v146.1h-10zM175.5 326.3h10v146.1h-10zM376.5 303.4h10v146.1h-10zM326.5 326.3h10v146.1h-10z" fill="#000000" class="color000000 svgShape"></path>
  </g>
</svg>
