<svg xmlns="http://www.w3.org/2000/svg" viewBox="0 0 64 64" id="billboard">
  <path fill="#958b87" d="M32 3a1 1 0 0 0-1 1V8a1 1 0 0 0 2 0V4A1 1 0 0 0 32 3zM17 3a1 1 0 0 0-1 1V8a1 1 0 0 0 2 0V4A1 1 0 0 0 17 3zM47 3a1 1 0 0 0-1 1V8a1 1 0 0 0 2 0V4A1 1 0 0 0 47 3zM47 39a1 1 0 0 0-1 1v4a1 1 0 0 0 2 0V40A1 1 0 0 0 47 39zM17 39a1 1 0 0 0-1 1v4a1 1 0 0 0 2 0V40A1 1 0 0 0 17 39z"></path>
  <path fill="#ffd500" d="M34 3H30a1 1 0 0 0 0 2h4a1 1 0 0 0 0-2zM19 3H15a1 1 0 0 0 0 2h4a1 1 0 0 0 0-2zM45 5h4a1 1 0 0 0 0-2H45a1 1 0 0 0 0 2zM49 43H45a1 1 0 0 0 0 2h4a1 1 0 0 0 0-2zM19 43H15a1 1 0 0 0 0 2h4a1 1 0 0 0 0-2z"></path>
  <rect width="58" height="34" x="3" y="7" fill="#d8d4d3" rx="3"></rect>
  <path fill="#6859a3" d="M58,41H6a3,3,0,0,1-3-3V10A3,3,0,0,1,6,7H58a3,3,0,0,1,3,3V38A3,3,0,0,1,58,41ZM6,9a1,1,0,0,0-1,1V38a1,1,0,0,0,1,1H58a1,1,0,0,0,1-1V10a1,1,0,0,0-1-1Z"></path>
  <rect width="6" height="8" x="25" y="39" fill="#d8d4d3" rx="1"></rect>
  <rect width="6" height="8" x="33" y="39" fill="#d8d4d3" rx="1"></rect>
  <path fill="#6859a3" d="M30 47H26a1 1 0 0 1-1-1V40a1 1 0 0 1 1-1h4a1 1 0 0 1 1 1v6A1 1 0 0 1 30 47zm-3-2h2V41H27zM38 47H34a1 1 0 0 1-1-1V40a1 1 0 0 1 1-1h4a1 1 0 0 1 1 1v6A1 1 0 0 1 38 47zm-3-2h2V41H35z"></path>
  <circle cx="18" cy="16" r="5" fill="#deb88a"></circle>
  <path fill="#eb5d40" d="M18,23A10.011,10.011,0,0,0,8,33v3a1,1,0,0,0,1,1H27a1,1,0,0,0,1-1V33A10.011,10.011,0,0,0,18,23Z"></path>
  <path fill="#0082b9" d="M34 22H56a1 1 0 0 0 0-2H34a1 1 0 0 0 0 2zM34 17H44a1 1 0 0 0 0-2H34a1 1 0 0 0 0 2zM44 30H34a1 1 0 0 0 0 2H44a1 1 0 0 0 0-2zM56 25H34a1 1 0 0 0 0 2H56a1 1 0 0 0 0-2z"></path>
  <rect width="6" height="22" x="29" y="39" fill="#0082b9" rx="1"></rect>
  <path fill="#231f20" d="M32,9a1,1,0,0,1-1-1V4a1,1,0,0,1,2,0V8A1,1,0,0,1,32,9Z"></path>
  <path fill="#231f20" d="M34 5H30a1 1 0 0 1 0-2h4a1 1 0 0 1 0 2zM17 9a1 1 0 0 1-1-1V4a1 1 0 0 1 2 0V8A1 1 0 0 1 17 9z"></path>
  <path fill="#231f20" d="M19 5H15a1 1 0 0 1 0-2h4a1 1 0 0 1 0 2zM47 9a1 1 0 0 1-1-1V4a1 1 0 0 1 2 0V8A1 1 0 0 1 47 9z"></path>
  <path fill="#231f20" d="M49 5H45a1 1 0 0 1 0-2h4a1 1 0 0 1 0 2zM47 45a1 1 0 0 1-1-1V40a1 1 0 0 1 2 0v4A1 1 0 0 1 47 45z"></path>
  <path fill="#231f20" d="M49 45H45a1 1 0 0 1 0-2h4a1 1 0 0 1 0 2zM17 45a1 1 0 0 1-1-1V40a1 1 0 0 1 2 0v4A1 1 0 0 1 17 45z"></path>
  <path fill="#231f20" d="M19 45H15a1 1 0 0 1 0-2h4a1 1 0 0 1 0 2zM58 41H6a3 3 0 0 1-3-3V10A3 3 0 0 1 6 7H58a3 3 0 0 1 3 3V38A3 3 0 0 1 58 41zM6 9a1 1 0 0 0-1 1V38a1 1 0 0 0 1 1H58a1 1 0 0 0 1-1V10a1 1 0 0 0-1-1z"></path>
  <path fill="#231f20" d="M34,61H30a1,1,0,0,1-1-1V40a1,1,0,0,1,1-1h4a1,1,0,0,1,1,1V60A1,1,0,0,1,34,61Zm-3-2h2V41H31Z"></path>
  <path fill="#231f20" d="M30 47H26a1 1 0 0 1-1-1V40a1 1 0 0 1 1-1h4a1 1 0 0 1 1 1v6A1 1 0 0 1 30 47zm-3-2h2V41H27zM38 47H34a1 1 0 0 1-1-1V40a1 1 0 0 1 1-1h4a1 1 0 0 1 1 1v6A1 1 0 0 1 38 47zm-3-2h2V41H35zM18 21a5 5 0 1 1 5-5A5.006 5.006 0 0 1 18 21zm0-8a3 3 0 1 0 3 3A3 3 0 0 0 18 13zM27 37H9a1 1 0 0 1-1-1V33a10 10 0 0 1 20 0v3A1 1 0 0 1 27 37zM10 35H26V33a8 8 0 0 0-16 0zM56 22H34a1 1 0 0 1 0-2H56a1 1 0 0 1 0 2zM44 17H34a1 1 0 0 1 0-2H44a1 1 0 0 1 0 2zM44 32H34a1 1 0 0 1 0-2H44a1 1 0 0 1 0 2zM56 27H34a1 1 0 0 1 0-2H56a1 1 0 0 1 0 2z"></path>
</svg>
