<svg xmlns="http://www.w3.org/2000/svg" viewBox="0 0 256 256" id="copier">
  <rect width="162.91" height="32.73" x="77.09" y="54.3" fill="#ccc"></rect>
  <path fill="#1a1a1a" d="M240,89.53H77.09a2.5,2.5,0,0,1-2.5-2.5V54.3a2.5,2.5,0,0,1,2.5-2.5H240a2.5,2.5,0,0,1,2.5,2.5V87A2.5,2.5,0,0,1,240,89.53Zm-160.41-5H237.5V56.8H79.59Z"></path>
  <rect width="41.91" height="19.78" x="198.09" y="34.52" fill="#f2f2f2"></rect>
  <path fill="#1a1a1a" d="M240,56.8H198.09a2.5,2.5,0,0,1-2.5-2.5V34.52a2.5,2.5,0,0,1,2.5-2.5H240a2.5,2.5,0,0,1,2.5,2.5V54.3A2.5,2.5,0,0,1,240,56.8Zm-39.41-5H237.5V37H200.59Z"></path>
  <rect width="119.95" height="14.9" x="120.05" y="19.61" fill="#ccc"></rect>
  <path fill="#1a1a1a" d="M240,37H120.05a2.5,2.5,0,0,1-2.5-2.5V19.61a2.5,2.5,0,0,1,2.5-2.5H240a2.5,2.5,0,0,1,2.5,2.5V34.52A2.5,2.5,0,0,1,240,37ZM122.55,32h115V22.11H122.55Z"></path>
  <rect width="162.91" height="38.08" x="77.09" y="87.03" fill="#ccc"></rect>
  <path fill="#1a1a1a" d="M240,127.61H77.09a2.5,2.5,0,0,1-2.5-2.5V87a2.49,2.49,0,0,1,2.5-2.5H240a2.49,2.49,0,0,1,2.5,2.5v38.08A2.5,2.5,0,0,1,240,127.61Zm-160.41-5H237.5V89.53H79.59Z"></path>
  <rect width="162.91" height="38.08" x="77.09" y="167.95" fill="#ccc"></rect>
  <path fill="#1a1a1a" d="M240,208.54H77.09a2.5,2.5,0,0,1-2.5-2.5V168a2.5,2.5,0,0,1,2.5-2.5H240a2.5,2.5,0,0,1,2.5,2.5V206A2.5,2.5,0,0,1,240,208.54Zm-160.41-5H237.5V170.45H79.59Z"></path>
  <path fill="#5b5c5f" d="M229.82,206v20.23H219.64a10.19,10.19,0,0,0-20.37,0H117.82a10.19,10.19,0,0,0-20.37,0H87.27V206Z"></path>
  <path fill="#1a1a1a" d="M229.82,228.77H219.64a2.5,2.5,0,0,1-2.5-2.5,7.69,7.69,0,0,0-15.37,0,2.5,2.5,0,0,1-2.5,2.5H117.82a2.5,2.5,0,0,1-2.5-2.5,7.69,7.69,0,0,0-15.37,0,2.49,2.49,0,0,1-2.5,2.5H87.27a2.5,2.5,0,0,1-2.5-2.5V206a2.5,2.5,0,0,1,2.5-2.5H229.82a2.5,2.5,0,0,1,2.5,2.5v20.23A2.5,2.5,0,0,1,229.82,228.77Zm-7.93-5h5.43V208.54H89.77v15.23H95.2a12.7,12.7,0,0,1,24.87,0h77a12.7,12.7,0,0,1,24.87,0Z"></path>
  <rect width="162.91" height="42.84" x="77.09" y="125.11" fill="#ccc"></rect>
  <path fill="#1a1a1a" d="M240,170.45H77.09a2.49,2.49,0,0,1-2.5-2.5V125.11a2.5,2.5,0,0,1,2.5-2.5H240a2.5,2.5,0,0,1,2.5,2.5V168A2.49,2.49,0,0,1,240,170.45Zm-160.41-5H237.5V127.61H79.59Z"></path>
  <path fill="#f2f2f2" d="M18.73,100.79l58.36,24.32V110.83L21.85,92.53A4.44,4.44,0,0,0,16,96.72h0A4.39,4.39,0,0,0,18.73,100.79Z"></path>
  <path fill="#1a1a1a" d="M77.09,127.61a2.49,2.49,0,0,1-1-.19L17.76,103.1a6.9,6.9,0,0,1-1.39-12,7,7,0,0,1,6.27-1l55.24,18.3a2.49,2.49,0,0,1,1.71,2.37v14.28a2.5,2.5,0,0,1-2.5,2.5ZM20.44,94.8a2,2,0,0,0-1.15.38,1.88,1.88,0,0,0-.79,1.54,1.92,1.92,0,0,0,1.19,1.77h0l54.9,22.87v-8.73L21.06,94.91A1.88,1.88,0,0,0,20.44,94.8Z"></path>
  <path fill="#f2f2f2" d="M18.73,143.72,77.09,168V153.75L21.85,135.46A4.43,4.43,0,0,0,16,139.64h0A4.42,4.42,0,0,0,18.73,143.72Z"></path>
  <path fill="#1a1a1a" d="M77.09,170.53a2.49,2.49,0,0,1-1-.19L17.76,146h0a6.89,6.89,0,0,1-4.26-6.38,6.8,6.8,0,0,1,2.87-5.59,7,7,0,0,1,6.26-1l55.25,18.3a2.5,2.5,0,0,1,1.71,2.37V168a2.5,2.5,0,0,1-2.5,2.5Zm-57.4-29.12,54.9,22.87v-8.72L21.06,137.83a2,2,0,0,0-1.77.27,1.89,1.89,0,0,0-.79,1.54A1.91,1.91,0,0,0,19.69,141.41Z"></path>
  <ellipse cx="107.64" cy="226.27" fill="#3e3e3f" rx="10.18" ry="10.12"></ellipse>
  <path fill="#1a1a1a" d="M107.64,238.89a12.62,12.62,0,1,1,12.68-12.62A12.67,12.67,0,0,1,107.64,238.89Zm0-20.24a7.62,7.62,0,1,0,7.68,7.62A7.67,7.67,0,0,0,107.64,218.65Z"></path>
  <ellipse cx="209.45" cy="226.27" fill="#3e3e3f" rx="10.18" ry="10.12"></ellipse>
  <path fill="#1a1a1a" d="M209.45,238.89a12.62,12.62,0,1,1,12.69-12.62A12.66,12.66,0,0,1,209.45,238.89Zm0-20.24a7.62,7.62,0,1,0,7.69,7.62A7.66,7.66,0,0,0,209.45,218.65Z"></path>
  <rect width="20.36" height="10.12" x="199.27" y="125.11" fill="#f2f2f2"></rect>
  <path fill="#1a1a1a" d="M219.64,137.73H199.27a2.5,2.5,0,0,1-2.5-2.5V125.11a2.5,2.5,0,0,1,2.5-2.5h20.37a2.5,2.5,0,0,1,2.5,2.5v10.12A2.5,2.5,0,0,1,219.64,137.73Zm-17.87-5h15.37v-5.12H201.77Z"></path>
  <rect width="20.36" height="10.12" x="199.27" y="87.25" fill="#f2f2f2"></rect>
  <path fill="#1a1a1a" d="M219.64,99.86H199.27a2.5,2.5,0,0,1-2.5-2.5V87.25a2.49,2.49,0,0,1,2.5-2.5h20.37a2.49,2.49,0,0,1,2.5,2.5V97.36A2.5,2.5,0,0,1,219.64,99.86Zm-17.87-5h15.37V89.75H201.77Z"></path>
  <rect width="61.09" height="8.85" x="77.09" y="136.49" fill="#f2f2f2"></rect>
  <path fill="#1a1a1a" d="M138.18,147.84H77.09a2.5,2.5,0,0,1-2.5-2.5v-8.85a2.5,2.5,0,0,1,2.5-2.5h61.09a2.5,2.5,0,0,1,2.5,2.5v8.85A2.5,2.5,0,0,1,138.18,147.84Zm-58.59-5h56.09V139H79.59Z"></path>
  <rect width="61.09" height="8.85" x="77.09" y="97.36" fill="#f2f2f2"></rect>
  <path fill="#1a1a1a" d="M138.18,108.71H77.09a2.5,2.5,0,0,1-2.5-2.5V97.36a2.5,2.5,0,0,1,2.5-2.5h61.09a2.5,2.5,0,0,1,2.5,2.5v8.85A2.5,2.5,0,0,1,138.18,108.71Zm-58.59-5h56.09V99.86H79.59Z"></path>
  <ellipse cx="97.45" cy="70.42" fill="#31bda5" rx="6.05" ry="6.01"></ellipse>
  <path fill="#1a1a1a" d="M97.45,78.93A8.51,8.51,0,1,1,106,70.42,8.54,8.54,0,0,1,97.45,78.93Zm0-12A3.51,3.51,0,1,0,101,70.42,3.53,3.53,0,0,0,97.45,66.91Z"></path>
  <ellipse cx="123.86" cy="70.42" fill="#31bda5" rx="6.05" ry="6.01"></ellipse>
  <path fill="#1a1a1a" d="M123.86,78.93a8.51,8.51,0,1,1,8.55-8.51A8.54,8.54,0,0,1,123.86,78.93Zm0-12a3.51,3.51,0,1,0,3.55,3.51A3.53,3.53,0,0,0,123.86,66.91Z"></path>
  <rect width="25.62" height="8.67" x="77.09" y="45.63" fill="#fae058"></rect>
  <path fill="#1a1a1a" d="M102.71,56.8H77.09a2.5,2.5,0,0,1-2.5-2.5V45.63a2.5,2.5,0,0,1,2.5-2.5h25.62a2.5,2.5,0,0,1,2.5,2.5V54.3A2.5,2.5,0,0,1,102.71,56.8Zm-23.12-5h20.62V48.13H79.59Z"></path>
  <rect width="17.34" height="8.67" x="102.71" y="45.63" fill="#25b5d1"></rect>
  <path fill="#1a1a1a" d="M120.05,56.8H102.71a2.5,2.5,0,0,1-2.5-2.5V45.63a2.5,2.5,0,0,1,2.5-2.5h17.34a2.5,2.5,0,0,1,2.5,2.5V54.3A2.5,2.5,0,0,1,120.05,56.8Zm-14.84-5h12.34V48.13H105.21Z"></path>
</svg>
